<?xml version="1.0" encoding="UTF-8" standalone="no"?>
<!-- Created with Inkscape (http://www.inkscape.org/) -->

<svg
   width="352.73056mm"
   height="64.74926mm"
   viewBox="0 0 352.73055 64.749257"
   version="1.1"
   id="svg1"
   inkscape:version="1.4.2 (f4327f4, 2025-05-13)"
   sodipodi:docname="CordPal_Logo_Large_V1.svg"
   xmlns:inkscape="http://www.inkscape.org/namespaces/inkscape"
   xmlns:sodipodi="http://sodipodi.sourceforge.net/DTD/sodipodi-0.dtd"
   xmlns="http://www.w3.org/2000/svg"
   xmlns:svg="http://www.w3.org/2000/svg">
  <sodipodi:namedview
     id="namedview1"
     pagecolor="#505050"
     bordercolor="#eeeeee"
     borderopacity="1"
     inkscape:showpageshadow="0"
     inkscape:pageopacity="0"
     inkscape:pagecheckerboard="true"
     inkscape:deskcolor="#505050"
     inkscape:document-units="mm"
     inkscape:zoom="1.0823864"
     inkscape:cx="567.26507"
     inkscape:cy="17.091863"
     inkscape:window-width="3440"
     inkscape:window-height="1417"
     inkscape:window-x="1432"
     inkscape:window-y="2152"
     inkscape:window-maximized="1"
     inkscape:current-layer="layer4"
     showgrid="false">
    <inkscape:grid
       id="grid8"
       units="mm"
       originx="-76.881714"
       originy="-112.71518"
       spacingx="0.99999998"
       spacingy="1"
       empcolor="#0099e5"
       empopacity="0.30196078"
       color="#0099e5"
       opacity="0.14901961"
       empspacing="5"
       enabled="true"
       visible="false" />
  </sodipodi:namedview>
  <defs
     id="defs1">
    <rect
       x="200.021"
       y="6.4671917"
       width="601.91077"
       height="235.59055"
       id="rect2" />
    <inkscape:path-effect
       effect="fillet_chamfer"
       id="path-effect8"
       is_visible="true"
       lpeversion="1"
       nodesatellites_param="F,0,0,1,0,2.6569504,0,1 @ F,0,0,1,0,0,0,1 @ F,0,0,1,0,3.3594516,0,1 @ F,0,0,1,0,0,0,1"
       radius="0"
       unit="px"
       method="auto"
       mode="F"
       chamfer_steps="1"
       flexible="false"
       use_knot_distance="true"
       apply_no_radius="true"
       apply_with_radius="true"
       only_selected="false"
       hide_knots="false" />
    <inkscape:path-effect
       effect="fillet_chamfer"
       id="path-effect7"
       is_visible="true"
       lpeversion="1"
       nodesatellites_param="F,0,0,1,0,2.5831467,0,1 @ F,0,0,1,0,0,0,1 @ F,0,0,1,0,8.7253657,0,1 @ F,0,0,1,0,0,0,1 @ F,0,0,1,0,3.681561,0,1 @ F,0,0,1,0,0,0,1 @ F,0,0,1,0,2.1014654,0,1 @ F,0,0,1,0,2.2819163,0,1 @ F,0,0,1,0,0,0,1 @ F,0,0,1,0,8.4048271,0,1 @ F,0,0,1,0,0,0,1 @ F,0,0,1,0,3.681479,0,1 @ F,0,0,1,0,0,0,1 @ F,0,0,1,0,2.7129238,0,1"
       radius="0"
       unit="px"
       method="auto"
       mode="F"
       chamfer_steps="1"
       flexible="false"
       use_knot_distance="true"
       apply_no_radius="true"
       apply_with_radius="true"
       only_selected="false"
       hide_knots="false" />
  </defs>
  <g
     inkscape:label="Chat"
     inkscape:groupmode="layer"
     id="layer1"
     transform="translate(-76.881718,-112.7152)">
    <path
       id="rect1"
       style="fill:#5a2ca0;stroke-width:0.176379"
       d="m 83.556744,112.7152 h 38.449896 c 3.56871,0 6.44172,3.07684 6.44172,6.89874 v 39.49142 c 0,3.8219 -2.87301,6.89873 -6.44172,6.89873 0,0 -3.19927,-0.10032 -33.072119,0.61111 -4.110603,4.94621 -12.044942,14.38915 -12.049757,9.46998 -0.01204,-12.30216 0.0016,-12.34671 0.230262,-56.47124 0.0198,-3.82185 2.873006,-6.89874 6.441718,-6.89874 z"
       sodipodi:nodetypes="ssssscsss" />
  </g>
  <g
     inkscape:groupmode="layer"
     id="layer2"
     inkscape:label="Music"
     transform="translate(-76.881718,-112.7152)">
    <path
       d="m 73.239699,99.580463 v 22.026097 c 0,0.79771 -0.132852,1.5644 -0.377638,2.27914 -1.463094,4.27207 -11.844143,4.27204 -13.307179,-5e-5 -0.24477,-0.71473 -0.377613,-1.4814 -0.377613,-2.27909 0,-2.6025 1.413964,-4.87479 3.515551,-6.09054 1.739793,-1.00646 3.515629,-0.9407 3.515629,-0.9407 1.28077,0 2.48154,0.34214 3.51563,0.9406 V 104.3722 a 2.1014654,2.1014654 45 0 0 -2.101465,-2.10147 H 56.185785 a 2.2819163,2.2819163 135 0 0 -2.281916,2.28192 v 17.05391 c 0,0.91077 -0.173175,1.78111 -0.488393,2.57987 -1.604325,4.06535 -11.481247,4.06538 -13.085622,4e-5 -0.315233,-0.79877 -0.488416,-1.66912 -0.488416,-2.57991 0,-2.60255 1.414014,-4.87487 3.515684,-6.0906 1.739779,-1.0064 3.515566,-0.94064 3.515566,-0.94064 1.280631,0 2.481401,0.34214 3.515551,0.9406 V 99.71024 a 2.7129238,2.7129238 135 0 1 2.712924,-2.712924 h 17.555389 a 2.5831467,2.5831467 45 0 1 2.583147,2.583147 z"
       id="path1"
       style="stroke-width:1.7578;fill:#000000"
       inkscape:path-effect="#path-effect7"
       inkscape:original-d="m 73.239699,96.997316 v 24.609244 c 0,3.88315 -3.1481,7.03118 -7.03125,7.03118 -3.88315,0 -7.03118,-3.14803 -7.03118,-7.03118 0,-3.88321 3.14803,-7.03124 7.03118,-7.03124 1.28077,0 2.48154,0.34214 3.51563,0.9406 v -13.24519 h -15.82021 v 19.33583 c 0,3.88315 -3.14797,7.03118 -7.031181,7.03118 -3.88322,0 -7.03125,-3.14803 -7.03125,-7.03118 0,-3.88321 3.14803,-7.03124 7.03125,-7.03124 1.280631,0 2.481401,0.34214 3.515551,0.9406 V 96.997316 Z"
       transform="translate(46.124471,21.014537)" />
  </g>
  <g
     inkscape:groupmode="layer"
     id="layer3"
     inkscape:label="Mouth"
     transform="translate(-76.881718,-112.7152)">
    <path
       id="path7"
       style="stroke-width:0.264583;fill:#000000"
       d="m 73.3986,133.78349 c -2.772716,2.59121 -9.015442,6.31009 -16.272234,6.31009 -6.830334,0 -12.762287,-3.29463 -15.747952,-5.84256 -1.387029,-1.18368 -0.603202,-2.60861 0.982349,-1.96137 3.199039,1.3059 8.6185,3.56914 14.765603,3.56914 6.586659,0 12.337895,-2.59848 15.417251,-3.83341 1.23683,-0.49602 1.908979,0.7731 0.854983,1.75811 z"
       sodipodi:nodetypes="sssss"
       inkscape:path-effect="#path-effect8"
       inkscape:original-d="m 74.929743,131.66722 c 2e-6,1.59898 -7.970842,8.42636 -17.803377,8.42636 -9.832535,0 -17.803379,-6.82738 -17.803377,-8.42636 -2e-6,-1.59898 7.970842,4.19157 17.803377,4.19157 9.832535,0 17.803379,-5.79055 17.803377,-4.19157 z"
       transform="translate(45.374344,19.358395)" />
  </g>
  <g
     inkscape:groupmode="layer"
     id="layer4"
     inkscape:label="Text">
    <path
       d="m 203.11748,-0.66120312 q 0,-7.34399998 3.312,-13.17599988 3.312,-5.904 9,-9.216 5.76,-3.312 12.744,-3.312 8.208,0 14.328,3.96 6.12,3.96 8.928,11.232 h -7.848 q -2.088,-4.536 -6.048,-6.984 -3.888,-2.448 -9.36,-2.448 -5.256,0 -9.432,2.448 -4.176,2.448 -6.552,6.984 -2.376,4.4639999 -2.376,10.51199988 0,5.97600002 2.376,10.51200002 2.376,4.4640001 6.552,6.9120001 4.176,2.448 9.432,2.448 5.472,0 9.36,-2.376 3.96,-2.448 6.048,-6.9840001 h 7.848 q -2.808,7.2000001 -8.928,11.1600001 -6.12,3.888 -14.328,3.888 -6.984,0 -12.744,-3.24 -5.688,-3.312 -9,-9.144 -3.312,-5.8320001 -3.312,-13.17600012 z M 283.90144,24.970797 q -6.984,0 -12.744,-3.24 -5.76,-3.312 -9.144,-9.144 -3.312,-5.9040001 -3.312,-13.24800012 0,-7.34399998 3.312,-13.17599988 3.384,-5.904 9.144,-9.144 5.76,-3.312 12.744,-3.312 7.056,0 12.816,3.312 5.76,3.24 9.072,9.072 3.312,5.8319999 3.312,13.24799988 0,7.41600002 -3.312,13.24800012 -3.312,5.832 -9.072,9.144 -5.76,3.24 -12.816,3.24 z m 0,-5.688 q 5.256,0 9.432,-2.448 4.248,-2.448 6.624,-6.9840001 2.448,-4.536 2.448,-10.51200002 0,-6.04799998 -2.448,-10.51199988 -2.376,-4.536 -6.552,-6.984 -4.176,-2.448 -9.504,-2.448 -5.328,0 -9.504,2.448 -4.176,2.448 -6.624,6.984 -2.376,4.4639999 -2.376,10.51199988 0,5.97600002 2.376,10.51200002 2.448,4.5360001 6.624,6.9840001 4.248,2.448 9.504,2.448 z m 60.26395,5.184 -11.952,-20.5200001 h -7.92 V 24.466797 h -6.552 v -50.184 h 16.2 q 5.688,0 9.576,1.944 3.96,1.944 5.904,5.256 1.944,3.312 1.944,7.56 0,5.1839999 -3.024,9.1439999 -2.952,3.96 -8.928,5.256 l 12.6,21.0240001 z m -19.872,-25.7760001 h 9.648 q 5.328,0 7.992,-2.592 2.664,-2.664 2.664,-7.0559999 0,-4.464 -2.664,-6.912 -2.592,-2.448 -7.992,-2.448 h -9.648 z m 52.84798,-24.4079999 q 8.208,0 14.184,3.096 6.048,3.024 9.216,8.712 3.24,5.6879999 3.24,13.39199988 0,7.70400002 -3.24,13.39200012 -3.168,5.616 -9.216,8.64 -5.976,2.952 -14.184,2.952 h -15.624 v -50.184 z m 0,44.784 q 9.72,0 14.832,-5.112 5.112,-5.1840001 5.112,-14.47200012 0,-9.35999998 -5.184,-14.61599988 -5.112,-5.256 -14.76,-5.256 h -9.072 v 39.456 z m 68.83206,-30.096 q 0,6.2639999 -4.32,10.43999988 -4.248,4.10400002 -13.032,4.10400002 h -9.648 V 24.466797 h -6.552 v -50.184 h 16.2 q 8.496,0 12.888,4.104 4.464,4.104 4.464,10.584 z m -17.352,9.1439999 q 5.472,0 8.064,-2.376 2.592,-2.376 2.592,-6.7679999 0,-9.288 -10.656,-9.288 h -9.648 v 18.4319999 z m 55.15203,15.1920001 h -21.888 l -4.032,11.16 h -6.912 l 18.144,-49.896 h 7.56 l 18.072,49.896 h -6.912 z m -1.872,-5.3280001 -9.072,-25.3439999 -9.072,25.3439999 z m 27.28798,11.1600001 h 17.568 v 5.328 h -24.12 v -50.184 h 6.552 z"
       id="text1"
       style="font-size:72px;line-height:0;font-family:Poppins;-inkscape-font-specification:Poppins;white-space:pre;fill:#b3b3b3"
       inkscape:label="text1"
       transform="matrix(0.91934509,0,0,0.91934509,-131.54136,27.401278)"
       aria-label="CORDPAL" />
  </g>
</svg>
